<mxfile host="app.diagrams.net" modified="2024-07-18T16:57:39.968Z" agent="Mozilla/5.0 (Windows NT 10.0; Win64; x64) AppleWebKit/537.36 (KHTML, like Gecko) Chrome/126.0.0.0 Safari/537.36" etag="dyr4LgqM2nfr2K1gusiN" version="24.7.1" type="github">
  <diagram name="motivation" id="mfI0fhyjf4zQTvwovW11">
    <mxGraphModel dx="1715" dy="984" grid="1" gridSize="10" guides="1" tooltips="1" connect="1" arrows="1" fold="1" page="1" pageScale="1" pageWidth="827" pageHeight="1169" math="0" shadow="0">
      <root>
        <mxCell id="0" />
        <mxCell id="1" parent="0" />
        <mxCell id="5rVMK_M7SfqzvkfmzC_y-2" value="" style="rounded=1;whiteSpace=wrap;html=1;fillColor=none;arcSize=6;" vertex="1" parent="1">
          <mxGeometry x="275" y="270" width="350" height="590" as="geometry" />
        </mxCell>
        <mxCell id="5rVMK_M7SfqzvkfmzC_y-4" value="&lt;font style=&quot;font-size: 24px;&quot;&gt;Cloud Deployment of Generative AI&lt;/font&gt;" style="text;html=1;align=center;verticalAlign=middle;whiteSpace=wrap;rounded=0;" vertex="1" parent="1">
          <mxGeometry x="260" y="870" width="380" height="30" as="geometry" />
        </mxCell>
        <mxCell id="5rVMK_M7SfqzvkfmzC_y-5" value="&lt;font style=&quot;font-size: 24px;&quot;&gt;Hypervisor&lt;/font&gt;" style="rounded=1;whiteSpace=wrap;html=1;fillColor=#f8cecc;strokeColor=#b85450;" vertex="1" parent="1">
          <mxGeometry x="295" y="800" width="220" height="40" as="geometry" />
        </mxCell>
        <mxCell id="5rVMK_M7SfqzvkfmzC_y-6" value="&lt;font style=&quot;font-size: 24px;&quot;&gt;Operating System&lt;/font&gt;" style="rounded=1;whiteSpace=wrap;html=1;fillColor=#f8cecc;strokeColor=#b85450;" vertex="1" parent="1">
          <mxGeometry x="295" y="750" width="220" height="40" as="geometry" />
        </mxCell>
        <mxCell id="5rVMK_M7SfqzvkfmzC_y-7" value="&lt;span style=&quot;font-size: 24px;&quot;&gt;GPU Driver&lt;/span&gt;" style="rounded=1;whiteSpace=wrap;html=1;fillColor=#f8cecc;strokeColor=#b85450;" vertex="1" parent="1">
          <mxGeometry x="295" y="650" width="220" height="40" as="geometry" />
        </mxCell>
        <mxCell id="5rVMK_M7SfqzvkfmzC_y-8" value="&lt;span style=&quot;font-size: 24px;&quot;&gt;CUDA Libraries&lt;/span&gt;" style="rounded=1;whiteSpace=wrap;html=1;fillColor=#f8cecc;strokeColor=#b85450;" vertex="1" parent="1">
          <mxGeometry x="295" y="600" width="220" height="40" as="geometry" />
        </mxCell>
        <mxCell id="5rVMK_M7SfqzvkfmzC_y-9" value="&lt;span style=&quot;font-size: 24px;&quot;&gt;Python Stack&lt;/span&gt;&lt;br&gt;&lt;font style=&quot;font-size: 19px;&quot;&gt;pytorch, transformers,&amp;nbsp;&lt;/font&gt;&lt;div&gt;&lt;font style=&quot;font-size: 19px;&quot;&gt;triton, jupyter, ...&lt;/font&gt;&lt;/div&gt;" style="rounded=1;whiteSpace=wrap;html=1;fillColor=#f8cecc;strokeColor=#b85450;" vertex="1" parent="1">
          <mxGeometry x="295" y="460" width="220" height="80" as="geometry" />
        </mxCell>
        <mxCell id="5rVMK_M7SfqzvkfmzC_y-11" value="&lt;span style=&quot;font-size: 24px;&quot;&gt;Generative AI Service&lt;/span&gt;&lt;div&gt;&lt;span style=&quot;font-size: 24px;&quot;&gt;&lt;br&gt;&lt;/span&gt;&lt;/div&gt;&lt;div&gt;&lt;span style=&quot;font-size: 24px;&quot;&gt;&lt;br&gt;&lt;/span&gt;&lt;/div&gt;&lt;div&gt;&lt;span style=&quot;font-size: 24px;&quot;&gt;&lt;br&gt;&lt;/span&gt;&lt;/div&gt;" style="rounded=1;whiteSpace=wrap;html=1;fillColor=none;dashed=1;" vertex="1" parent="1">
          <mxGeometry x="285" y="280" width="330" height="120" as="geometry" />
        </mxCell>
        <mxCell id="5rVMK_M7SfqzvkfmzC_y-12" value="" style="rounded=1;whiteSpace=wrap;html=1;fillColor=none;dashed=1;" vertex="1" parent="1">
          <mxGeometry x="285" y="710" width="240" height="140" as="geometry" />
        </mxCell>
        <mxCell id="5rVMK_M7SfqzvkfmzC_y-13" value="&lt;font style=&quot;font-size: 24px;&quot;&gt;Controlled by CSP&lt;/font&gt;" style="text;html=1;align=center;verticalAlign=middle;resizable=0;points=[];autosize=1;strokeColor=none;fillColor=none;" vertex="1" parent="1">
          <mxGeometry x="295" y="710" width="220" height="40" as="geometry" />
        </mxCell>
        <mxCell id="5rVMK_M7SfqzvkfmzC_y-14" value="" style="rounded=1;whiteSpace=wrap;html=1;fillColor=none;dashed=1;" vertex="1" parent="1">
          <mxGeometry x="285" y="560" width="330" height="140" as="geometry" />
        </mxCell>
        <mxCell id="5rVMK_M7SfqzvkfmzC_y-15" value="&lt;font style=&quot;font-size: 24px;&quot;&gt;Controlled by Manufature&lt;/font&gt;" style="text;html=1;align=center;verticalAlign=middle;resizable=0;points=[];autosize=1;strokeColor=none;fillColor=none;" vertex="1" parent="1">
          <mxGeometry x="315" y="560" width="290" height="40" as="geometry" />
        </mxCell>
        <mxCell id="5rVMK_M7SfqzvkfmzC_y-17" value="&lt;font style=&quot;font-size: 24px;&quot;&gt;GPU&lt;/font&gt;" style="editableCssRules=.*;html=1;shape=image;verticalLabelPosition=bottom;labelBackgroundColor=#ffffff;verticalAlign=top;aspect=fixed;imageAspect=0;image=data:image/svg+xml,PHN2ZyB4bWxucz0iaHR0cDovL3d3dy53My5vcmcvMjAwMC9zdmciIHhtbG5zOnY9Imh0dHBzOi8vdmVjdGEuaW8vbmFubyIgd2lkdGg9IjIwIiBoZWlnaHQ9IjIwIiB2aWV3Qm94PSIwIDAgMjAgMjAiPiYjeGE7CTxzdHlsZSB0eXBlPSJ0ZXh0L2NzcyI+LnN0MCB7IGZpbGw6IHJnYigxMjYsIDE2NiwgMjI0KTsgfSA8L3N0eWxlPiYjeGE7CTxwYXRoIGNsYXNzPSJzdDAiIGQ9Ik0xMy4zMyAwdjIuMzhoLTIuMTZWMEg4LjgzdjIuMzhINi42N1YwSDQuMjl2Mi4zOGEyIDIgMCAwIDAtMS45MSAxLjkxSDB2Mi4zOGgyLjM4djIuMTRIMHYyLjM4aDIuMzh2Mi4xNEgwdjIuMzhoMi4zOGEyIDIgMCAwIDAgMS45MSAxLjkxVjIwaDIuMzh2LTIuMzhoMi4xNlYyMGgyLjM0di0yLjM4aDIuMTZWMjBoMi4zOHYtMi4zOGEyIDIgMCAwIDAgMS45MS0xLjkxSDIwdi0yLjM4aC0yLjM4di0yLjE0SDIwVjguODFoLTIuMzhWNi42N0gyMFY0LjI5aC0yLjM4YTIgMiAwIDAgMC0xLjkxLTEuOTFWMHptMS41MyAxNS4yNEg1LjE0YS4zOC4zOCAwIDAgMS0uMzgtLjM4VjUuMTRhLjM4LjM4IDAgMCAxIC4zOC0uMzhoOS43MmEuMzguMzggMCAwIDEgLjM4LjM4djkuNzJhLjM4LjM4IDAgMCAxLS4zOC4zOHptLTIuMDctNi4xMmwtMy41IDQuODZ2LTMuNjNINy4yMmwzLjYxLTQuODF2My41OHoiLz4mI3hhOzwvc3ZnPg==;" vertex="1" parent="1">
          <mxGeometry x="530" y="600" width="60" height="60" as="geometry" />
        </mxCell>
        <mxCell id="5rVMK_M7SfqzvkfmzC_y-19" value="" style="rounded=1;whiteSpace=wrap;html=1;fillColor=none;dashed=1;" vertex="1" parent="1">
          <mxGeometry x="285" y="410" width="330" height="140" as="geometry" />
        </mxCell>
        <mxCell id="5rVMK_M7SfqzvkfmzC_y-18" value="&lt;font style=&quot;font-size: 24px;&quot;&gt;GPU&lt;/font&gt;" style="editableCssRules=.*;html=1;shape=image;verticalLabelPosition=bottom;labelBackgroundColor=#ffffff;verticalAlign=top;aspect=fixed;imageAspect=0;image=data:image/svg+xml,PHN2ZyB4bWxucz0iaHR0cDovL3d3dy53My5vcmcvMjAwMC9zdmciIHhtbG5zOnY9Imh0dHBzOi8vdmVjdGEuaW8vbmFubyIgd2lkdGg9IjIwIiBoZWlnaHQ9IjIwIiB2aWV3Qm94PSIwIDAgMjAgMjAiPiYjeGE7CTxzdHlsZSB0eXBlPSJ0ZXh0L2NzcyI+JiN4YTsJLnN0MHtmaWxsOiM0Mjg1ZjQ7fSYjeGE7CS5zdDF7ZmlsbDojNjY5ZGY2O30mI3hhOwkuc3Qye2ZpbGw6I2FlY2JmYTt9JiN4YTsJPC9zdHlsZT4mI3hhOwk8cGF0aCBjbGFzcz0ic3QyIiBkPSJNNyA3aDZ2Nkg3eiIvPiYjeGE7CTxwYXRoIGNsYXNzPSJzdDEiIGQ9Ik05IDBoMnY0SDl6TTUgMGgydjRINXptOCAwaDJ2NGgtMnoiLz4mI3hhOwk8cGF0aCBjbGFzcz0ic3QwIiBkPSJNOSAxNmgydjRIOXptLTQgMGgydjRINXptOCAwaDJ2NGgtMnptMy01VjloNHYyem0wIDR2LTJoNHYyem0wLThWNWg0djJ6Ii8+JiN4YTsJPHBhdGggY2xhc3M9InN0MSIgZD0iTTAgMTFWOWg0djJ6bTAgNHYtMmg0djJ6bTAtOFY1aDR2MnoiLz4mI3hhOwk8cGF0aCBjbGFzcz0ic3QyIiBkPSJNMyAzdjE0aDE0VjN6bTEyIDEySDVWNWgxMHoiLz4mI3hhOwk8cGF0aCBjbGFzcz0ic3QxIiBkPSJNMTAgMTBsLTMgM2g2eiIvPiYjeGE7CTxwYXRoIGNsYXNzPSJzdDAiIGQ9Ik0xMyA3bC0zIDMgMyAzeiIvPiYjeGE7PC9zdmc+;" vertex="1" parent="1">
          <mxGeometry x="545" y="740" width="60" height="60" as="geometry" />
        </mxCell>
        <mxCell id="5rVMK_M7SfqzvkfmzC_y-20" value="&lt;font style=&quot;font-size: 24px;&quot;&gt;Controlled by Vendors&lt;/font&gt;" style="text;html=1;align=center;verticalAlign=middle;resizable=0;points=[];autosize=1;strokeColor=none;fillColor=none;" vertex="1" parent="1">
          <mxGeometry x="330" y="410" width="260" height="40" as="geometry" />
        </mxCell>
        <mxCell id="5rVMK_M7SfqzvkfmzC_y-21" value="&lt;span style=&quot;font-size: 24px;&quot;&gt;Other&lt;/span&gt;&lt;div&gt;&lt;span style=&quot;font-size: 24px;&quot;&gt;Libs&lt;/span&gt;&lt;/div&gt;" style="rounded=1;whiteSpace=wrap;html=1;fillColor=#f8cecc;strokeColor=#b85450;" vertex="1" parent="1">
          <mxGeometry x="525" y="460" width="80" height="80" as="geometry" />
        </mxCell>
        <mxCell id="5rVMK_M7SfqzvkfmzC_y-24" value="&lt;span style=&quot;font-size: 24px;&quot;&gt;Base&amp;nbsp;&lt;/span&gt;&lt;span style=&quot;font-size: 24px; background-color: initial;&quot;&gt;Model&lt;/span&gt;&lt;div&gt;&lt;span style=&quot;background-color: initial;&quot;&gt;&lt;span style=&quot;font-size: 24px;&quot;&gt;(Proprietary)&lt;/span&gt;&lt;/span&gt;&lt;/div&gt;" style="rounded=1;whiteSpace=wrap;html=1;fillColor=#d5e8d4;strokeColor=#82b366;" vertex="1" parent="1">
          <mxGeometry x="295" y="320" width="150" height="70" as="geometry" />
        </mxCell>
        <mxCell id="5rVMK_M7SfqzvkfmzC_y-25" value="&lt;span style=&quot;font-size: 24px;&quot;&gt;Fine-tuned&lt;br&gt;Layers&lt;/span&gt;" style="rounded=1;whiteSpace=wrap;html=1;fillColor=#d5e8d4;strokeColor=#82b366;" vertex="1" parent="1">
          <mxGeometry x="455" y="320" width="150" height="70" as="geometry" />
        </mxCell>
        <mxCell id="5rVMK_M7SfqzvkfmzC_y-26" value="" style="editableCssRules=.*;html=1;shape=image;verticalLabelPosition=bottom;labelBackgroundColor=#ffffff;verticalAlign=top;aspect=fixed;imageAspect=0;image=data:image/svg+xml,PHN2ZyB4bWxucz0iaHR0cDovL3d3dy53My5vcmcvMjAwMC9zdmciIHhtbG5zOnY9Imh0dHBzOi8vdmVjdGEuaW8vbmFubyIgdmlld0JveD0iMCAwIDMwLjMwOTk5OTQ2NTk0MjM4MyAzMi41IiBoZWlnaHQ9IjEyMi44MzQiIHdpZHRoPSIxMTQuNTU3MjE4NDYyNTMyNiI+JiN4YTsJPHN0eWxlIHR5cGU9InRleHQvY3NzIj4mI3hhOwkuc3Qwe2ZpbGw6I2U1NWIyZDt9JiN4YTsJLnN0MXtmaWxsOiNlZDhlMjQ7fSYjeGE7CS5zdDJ7ZmlsbDojZjhiZjNjO30mI3hhOwk8L3N0eWxlPiYjeGE7CTxwYXRoIGNsYXNzPSJzdDAiIGQ9Ik0xNy4zMiA1djVsOC42NiA1di01ek0wIDEwdjVsNC4zMyAyLjV2LTV6bTEyLjk5IDIuNUw4LjY1OSAxNXYxNWw0LjMzIDIuNXYtMTBsNC4zMyAyLjV2LTVsLTQuMzMtMi41eiIvPiYjeGE7CTxwYXRoIGNsYXNzPSJzdDEiIGQ9Ik0xNy4zMiA1bC0xMi45OSA3LjV2NWw4LjY2LTV2NWw0LjMzLTIuNXptMTIuOTkgMi41TDI1Ljk4IDEwdjVsNC4zMy0yLjV6bS04LjY2IDEwTDE3LjMyIDIwdjVsNC4zMy0yLjV6TTE3LjMyIDI1bC00LjMzLTIuNXYxMGw0LjMzLTIuNXoiLz4mI3hhOwk8cGF0aCBjbGFzcz0ic3QyIiBkPSJNMTcuMzIgMEwwIDEwbDQuMzMgMi41TDE3LjMyIDVsOC42NiA1IDQuMzMtMi41em0wIDE1bC00LjMzIDIuNSA0LjMzIDIuNSA0LjMzLTIuNXoiLz4mI3hhOzwvc3ZnPg==;fontColor=default;" vertex="1" parent="1">
          <mxGeometry x="480" y="510" width="19" height="20" as="geometry" />
        </mxCell>
      </root>
    </mxGraphModel>
  </diagram>
</mxfile>
